<svg width="29" height="29" viewBox="0 0 29 29" fill="none" xmlns="http://www.w3.org/2000/svg">
<path d="M25.1145 2.89054C25.0785 2.89168 25.0425 2.89483 25.0069 2.89998H19.3334C19.2053 2.89817 19.0781 2.92183 18.9592 2.9696C18.8404 3.01737 18.7322 3.08828 18.6409 3.17822C18.5497 3.26817 18.4773 3.37534 18.4278 3.49353C18.3784 3.61171 18.3529 3.73854 18.3529 3.86665C18.3529 3.99475 18.3784 4.12158 18.4278 4.23977C18.4773 4.35795 18.5497 4.46512 18.6409 4.55507C18.7322 4.64501 18.8404 4.71593 18.9592 4.76369C19.0781 4.81146 19.2053 4.83512 19.3334 4.83331H22.7998L12.8499 14.7832C12.7571 14.8723 12.6831 14.9789 12.632 15.097C12.581 15.2151 12.554 15.3421 12.5527 15.4707C12.5514 15.5993 12.5758 15.7269 12.6244 15.846C12.673 15.965 12.7449 16.0732 12.8358 16.1642C12.9268 16.2551 13.035 16.327 13.154 16.3756C13.2731 16.4242 13.4007 16.4486 13.5293 16.4473C13.6579 16.446 13.7849 16.419 13.903 16.368C14.0211 16.317 14.1278 16.2429 14.2168 16.1501L24.1667 6.20024V9.66665C24.1649 9.79474 24.1886 9.92192 24.2363 10.0408C24.2841 10.1597 24.355 10.2678 24.4449 10.3591C24.5349 10.4503 24.6421 10.5227 24.7602 10.5722C24.8784 10.6216 25.0053 10.6471 25.1334 10.6471C25.2615 10.6471 25.3883 10.6216 25.5065 10.5722C25.6247 10.5227 25.7318 10.4503 25.8218 10.3591C25.9117 10.2678 25.9826 10.1597 26.0304 10.0408C26.0782 9.92192 26.1018 9.79474 26.1 9.66665V3.98937C26.1193 3.85019 26.108 3.70849 26.0669 3.57414C26.0258 3.43978 25.9559 3.31599 25.8621 3.2114C25.7683 3.10681 25.6528 3.02392 25.5237 2.9685C25.3946 2.91309 25.2549 2.88648 25.1145 2.89054ZM5.80003 6.76665C4.74341 6.76665 3.8667 7.64335 3.8667 8.69998V23.2C3.8667 24.2566 4.74341 25.1333 5.80003 25.1333H20.3C21.3567 25.1333 22.2334 24.2566 22.2334 23.2V13.5333V11.0411L20.3 12.9745V15.4666V23.2H5.80003V8.69998H13.5334H15.4667H16.0256L17.9589 6.76665H15.4667H13.5334H5.80003Z" fill="#8C3CEF"/>
</svg>
