<svg width="29" height="29" viewBox="0 0 29 29" fill="none" xmlns="http://www.w3.org/2000/svg">
<path d="M8.56818 0C3.8425 0 0 3.8425 0 8.56818V20.4318C0 25.1575 3.8425 29 8.56818 29H20.4318C25.1575 29 29 25.1575 29 20.4318V8.56818C29 3.8425 25.1575 0 20.4318 0H8.56818ZM22.4091 5.27273C23.1341 5.27273 23.7273 5.86591 23.7273 6.59091C23.7273 7.31591 23.1341 7.90909 22.4091 7.90909C21.6841 7.90909 21.0909 7.31591 21.0909 6.59091C21.0909 5.86591 21.6841 5.27273 22.4091 5.27273ZM14.5 7.25C18.5007 7.25 21.75 10.4993 21.75 14.5C21.75 18.5007 18.5007 21.75 14.5 21.75C10.4993 21.75 7.25 18.5007 7.25 14.5C7.25 10.4993 10.4993 7.25 14.5 7.25ZM14.5 8.56818C11.2309 8.56818 8.56818 11.2309 8.56818 14.5C8.56818 17.7691 11.2309 20.4318 14.5 20.4318C17.7691 20.4318 20.4318 17.7691 20.4318 14.5C20.4318 11.2309 17.7691 8.56818 14.5 8.56818Z" fill="url(#paint0_linear_3782_1633)"/>
<defs>
<linearGradient id="paint0_linear_3782_1633" x1="14.5" y1="0" x2="14.5" y2="29" gradientUnits="userSpaceOnUse">
<stop stop-color="#8C3CEF"/>
<stop offset="0.657815" stop-color="#EC6FFD"/>
</linearGradient>
</defs>
</svg>
