<svg width="24" height="24" viewBox="0 0 24 24" fill="none" xmlns="http://www.w3.org/2000/svg">
<path fill-rule="evenodd" clip-rule="evenodd" d="M18.8506 6.45054C19.21 6.09126 19.21 5.50874 18.8506 5.14946C18.4914 4.79018 17.9089 4.79018 17.5497 5.14946L12.0001 10.6989L6.45067 5.14946C6.09138 4.79018 5.50887 4.79018 5.14959 5.14946C4.79031 5.50874 4.79031 6.09126 5.14959 6.45054L10.6991 12L5.14959 17.5495C4.79031 17.9088 4.79031 18.4912 5.14959 18.8506C5.50887 19.2098 6.09138 19.2098 6.45067 18.8506L12.0001 13.3011L17.5497 18.8506C17.9089 19.2098 18.4914 19.2098 18.8506 18.8506C19.21 18.4912 19.21 17.9088 18.8506 17.5495L13.3012 12L18.8506 6.45054Z" fill="#EAE3DA"/>
</svg>
