<svg width="24" height="24" viewBox="0 0 24 24" fill="none" xmlns="http://www.w3.org/2000/svg">
<path fill-rule="evenodd" clip-rule="evenodd" d="M13.232 1.36006C13.864 0.60206 15.095 1.12006 14.995 2.10206L14.289 9.00006H20C20.19 9.00013 20.3761 9.05434 20.5364 9.15633C20.6967 9.25833 20.8247 9.40389 20.9052 9.57597C20.9858 9.74805 21.0157 9.93952 20.9914 10.128C20.9671 10.3164 20.8896 10.4941 20.768 10.6401L10.768 22.6401C10.136 23.3981 8.90499 22.8801 9.00499 21.8981L9.71099 15.0001H3.99999C3.80998 15 3.62392 14.9458 3.4636 14.8438C3.30328 14.7418 3.17533 14.5962 3.09475 14.4242C3.01416 14.2521 2.98428 14.0606 3.00858 13.8721C3.03289 13.6837 3.11038 13.5061 3.23199 13.3601L13.232 1.36006Z" fill="#EAE3DA"/>
</svg>
