<svg width="24" height="24" viewBox="0 0 24 24" fill="none" xmlns="http://www.w3.org/2000/svg">
<path d="M16.5 3C18.2553 3 19.9798 3.46221 21.5 4.33984C21.5098 4.34548 21.5188 4.35248 21.5283 4.3584C21.5431 4.36765 21.558 4.37673 21.5723 4.38672C21.5878 4.39754 21.6024 4.40934 21.6172 4.4209C21.6256 4.42751 21.6344 4.43356 21.6426 4.44043C21.6609 4.45576 21.6783 4.47185 21.6953 4.48828C21.7009 4.49373 21.7064 4.4993 21.7119 4.50488C21.7501 4.54365 21.7845 4.58517 21.8154 4.62891C21.823 4.63959 21.8307 4.65015 21.8379 4.66113C21.8487 4.67771 21.8584 4.69479 21.8682 4.71191C21.8757 4.72507 21.8827 4.73843 21.8896 4.75195C21.894 4.7604 21.8983 4.76879 21.9023 4.77734C21.9263 4.8276 21.9456 4.88011 21.9609 4.93457C21.9645 4.9472 21.9676 4.95989 21.9707 4.97266C21.9743 4.9876 21.9785 5.00239 21.9814 5.01758C21.9849 5.03536 21.9868 5.05334 21.9893 5.07129C21.9914 5.08685 21.9937 5.10239 21.9951 5.11816C21.9971 5.14057 21.9985 5.16299 21.999 5.18555C21.9992 5.19237 22 5.1992 22 5.20605V18.2334C21.998 18.3113 21.9846 18.3889 21.9639 18.4658C21.9605 18.4784 21.9589 18.4915 21.9551 18.5039L21.9492 18.5215C21.9469 18.5285 21.9429 18.535 21.9404 18.542C21.9327 18.5637 21.9252 18.5854 21.916 18.6064C21.9089 18.6228 21.8997 18.6382 21.8916 18.6543C21.8857 18.666 21.8804 18.678 21.874 18.6895C21.8711 18.6948 21.8693 18.7008 21.8662 18.7061C21.8606 18.7158 21.8536 18.7249 21.8477 18.7344C21.8383 18.7493 21.8285 18.7639 21.8184 18.7783C21.7669 18.852 21.707 18.9162 21.6406 18.9717C21.6369 18.9748 21.6336 18.9784 21.6299 18.9814C21.6125 18.9956 21.5944 19.0086 21.5762 19.0215C21.5655 19.0291 21.5549 19.0368 21.5439 19.0439C21.5251 19.0561 21.5058 19.0673 21.4863 19.0781C21.4798 19.0818 21.4734 19.0854 21.4668 19.0889C21.4496 19.0979 21.4327 19.1072 21.415 19.1152C21.3965 19.1237 21.3775 19.1313 21.3584 19.1387C21.3517 19.1413 21.3447 19.1431 21.3379 19.1455C21.316 19.1534 21.294 19.1606 21.2715 19.167C21.2585 19.1706 21.2455 19.1736 21.2324 19.1768C21.2159 19.1807 21.1994 19.1844 21.1826 19.1875C21.1664 19.1905 21.1502 19.1931 21.1338 19.1953C21.1182 19.1974 21.1027 19.1998 21.0869 19.2012C21.0645 19.2032 21.0421 19.2046 21.0195 19.2051C21.013 19.2052 21.0065 19.2061 21 19.2061C20.9971 19.2061 20.9941 19.2051 20.9912 19.2051C20.9664 19.2049 20.9418 19.2032 20.917 19.2012C20.9085 19.2005 20.9 19.2011 20.8916 19.2002C20.8361 19.1942 20.7812 19.1826 20.7266 19.167C20.7144 19.1635 20.7024 19.1601 20.6904 19.1562C20.68 19.1528 20.6696 19.1493 20.6592 19.1455C20.6388 19.1381 20.6184 19.1307 20.5986 19.1221C20.5823 19.1149 20.5669 19.1058 20.5508 19.0977C20.5391 19.0917 20.5271 19.0864 20.5156 19.0801C20.5106 19.0773 20.505 19.0752 20.5 19.0723C19.2839 18.3702 17.9042 18 16.5 18C15.2848 18 14.0883 18.278 13 18.8076V19.2061C13 19.7583 12.5523 20.2061 12 20.2061C11.4477 20.2061 11 19.7583 11 19.2061V18.8076C9.91168 18.278 8.71523 18 7.5 18C6.09575 18 4.71612 18.3702 3.5 19.0723C3.49474 19.0753 3.48869 19.0772 3.4834 19.0801C3.47193 19.0864 3.45998 19.0917 3.44824 19.0977C3.43215 19.1058 3.41673 19.1149 3.40039 19.1221C3.37938 19.1313 3.35767 19.1387 3.33594 19.1465C3.32679 19.1498 3.31779 19.1533 3.30859 19.1562C3.29665 19.1601 3.2846 19.1636 3.27246 19.167C3.21783 19.1825 3.1629 19.1942 3.10742 19.2002C3.09903 19.2011 3.09049 19.2005 3.08203 19.2012C3.05723 19.2032 3.03258 19.2049 3.00781 19.2051C3.00521 19.2051 3.00261 19.2061 3 19.2061C2.99314 19.2061 2.98632 19.2052 2.97949 19.2051C2.95693 19.2046 2.93452 19.2032 2.91211 19.2012C2.89633 19.1998 2.88079 19.1974 2.86523 19.1953C2.84886 19.1931 2.83263 19.1905 2.81641 19.1875C2.79961 19.1844 2.78309 19.1807 2.7666 19.1768C2.75353 19.1736 2.74047 19.1707 2.72754 19.167C2.70502 19.1606 2.68297 19.1534 2.66113 19.1455C2.65435 19.1431 2.64736 19.1413 2.64062 19.1387C2.62149 19.1313 2.60253 19.1237 2.58398 19.1152C2.56637 19.1072 2.54938 19.0979 2.53223 19.0889C2.52565 19.0854 2.51918 19.0818 2.5127 19.0781C2.4932 19.0673 2.47387 19.0561 2.45508 19.0439C2.44409 19.0368 2.43353 19.0291 2.42285 19.0215C2.40464 19.0086 2.38654 18.9956 2.36914 18.9814C2.36539 18.9784 2.3621 18.9748 2.3584 18.9717C2.29213 18.9162 2.232 18.852 2.18066 18.7783C2.17067 18.764 2.1616 18.7492 2.15234 18.7344C2.14644 18.7249 2.13942 18.7158 2.13379 18.7061C2.13065 18.7006 2.12802 18.6949 2.125 18.6895C2.11866 18.678 2.11332 18.666 2.10742 18.6543C2.09933 18.6382 2.09015 18.6228 2.08301 18.6064C2.07383 18.5855 2.06634 18.5637 2.05859 18.542C2.05612 18.5351 2.05309 18.5284 2.05078 18.5215L2.04492 18.5039C2.04103 18.4914 2.03856 18.4785 2.03516 18.4658C2.01445 18.389 2.00203 18.3112 2 18.2334V5.18555C2.00049 5.16301 2.0019 5.14055 2.00391 5.11816C2.00528 5.1024 2.00767 5.08683 2.00977 5.07129C2.01224 5.05329 2.01512 5.0354 2.01855 5.01758C2.02144 5.00246 2.02476 4.98752 2.02832 4.97266C2.03139 4.95991 2.03452 4.94719 2.03809 4.93457C2.05341 4.88016 2.0728 4.82757 2.09668 4.77734C2.10073 4.76879 2.10508 4.76039 2.10938 4.75195C2.11628 4.73844 2.12337 4.72506 2.13086 4.71191C2.14057 4.6948 2.15039 4.6777 2.16113 4.66113C2.16828 4.65015 2.17603 4.63958 2.18359 4.62891C2.23228 4.55997 2.28984 4.49628 2.35645 4.44043C2.36461 4.43356 2.37345 4.42751 2.38184 4.4209C2.39657 4.40933 2.41124 4.39755 2.42676 4.38672C2.44102 4.37672 2.45591 4.36766 2.4707 4.3584C2.48044 4.35233 2.48999 4.34562 2.5 4.33984C4.02016 3.46221 5.74468 3 7.5 3C9.06564 3 10.6065 3.36811 12 4.07031C13.3935 3.36811 14.9344 3 16.5 3ZM7.5 5C6.28477 5 5.08832 5.27797 4 5.80762V16.6328C5.11535 16.2161 6.30046 16 7.5 16C8.69968 16 9.8846 16.2168 11 16.6338V6.20605C11 6.07754 11.0242 5.95466 11.0684 5.8418C9.96183 5.29016 8.74081 5 7.5 5ZM16.5 5C15.2589 5 14.0374 5.28991 12.9307 5.8418C12.9749 5.95476 13 6.07741 13 6.20605V16.6338C14.1154 16.2168 15.3003 16 16.5 16C17.6995 16 18.8847 16.2161 20 16.6328V5.80762C18.9117 5.27797 17.7152 5 16.5 5Z" fill="#EAE3DA"/>
</svg>
